<svg width="2057" height="1122" viewBox="0 0 2057 1122" fill="none" xmlns="http://www.w3.org/2000/svg">
<path fill-rule="evenodd" clip-rule="evenodd" d="M188.433 425.277L25.541 543.626C-1.26751 563.103 -7.21038 600.625 12.267 627.434L353.182 1096.66C372.66 1123.47 410.182 1129.41 436.991 1109.94L744.417 886.579C765.632 871.166 773.78 844.453 766.605 820.691L445.448 925.041C398.175 940.401 347.401 914.53 332.041 867.257L188.433 425.277Z" fill="#7C7C7C"/>
<path fill-rule="evenodd" clip-rule="evenodd" d="M432 162.105L220.063 230.967C188.548 241.207 171.301 275.057 181.541 306.572L360.771 858.185C371.011 889.7 404.86 906.947 436.375 896.707L797.777 779.281C820.512 771.894 835.821 752.22 838.743 730H522C472.294 730 432 689.706 432 640V162.105Z" fill="#383838"/>
<rect x="462" width="500" height="700" rx="60" fill="#D60E26"/>
<path d="M1079.32 170.2C1079.32 142.467 1085.33 117.8 1097.33 96.2C1109.33 74.3333 1125.99 57.4 1147.33 45.4C1168.93 33.1333 1193.33 27 1220.53 27C1253.86 27 1282.39 35.8 1306.13 53.4C1329.86 71 1345.73 95 1353.73 125.4H1278.53C1272.93 113.667 1264.93 104.733 1254.53 98.6C1244.39 92.4667 1232.79 89.4 1219.73 89.4C1198.66 89.4 1181.59 96.7333 1168.53 111.4C1155.46 126.067 1148.93 145.667 1148.93 170.2C1148.93 194.733 1155.46 214.333 1168.53 229C1181.59 243.667 1198.66 251 1219.73 251C1232.79 251 1244.39 247.933 1254.53 241.8C1264.93 235.667 1272.93 226.733 1278.53 215H1353.73C1345.73 245.4 1329.86 269.4 1306.13 287C1282.39 304.333 1253.86 313 1220.53 313C1193.33 313 1168.93 307 1147.33 295C1125.99 282.733 1109.33 265.8 1097.33 244.2C1085.33 222.6 1079.32 197.933 1079.32 170.2ZM1382.01 199C1382.01 176.067 1386.28 155.933 1394.81 138.6C1403.61 121.267 1415.48 107.933 1430.41 98.6C1445.35 89.2667 1462.01 84.6 1480.41 84.6C1496.15 84.6 1509.88 87.8 1521.61 94.2C1533.61 100.6 1542.81 109 1549.21 119.4V87.8H1617.61V311H1549.21V279.4C1542.55 289.8 1533.21 298.2 1521.21 304.6C1509.48 311 1495.75 314.2 1480.01 314.2C1461.88 314.2 1445.35 309.533 1430.41 300.2C1415.48 290.6 1403.61 277.133 1394.81 259.8C1386.28 242.2 1382.01 221.933 1382.01 199ZM1549.21 199.4C1549.21 182.333 1544.41 168.867 1534.81 159C1525.48 149.133 1514.01 144.2 1500.41 144.2C1486.81 144.2 1475.21 149.133 1465.61 159C1456.28 168.6 1451.61 181.933 1451.61 199C1451.61 216.067 1456.28 229.667 1465.61 239.8C1475.21 249.667 1486.81 254.6 1500.41 254.6C1514.01 254.6 1525.48 249.667 1534.81 239.8C1544.41 229.933 1549.21 216.467 1549.21 199.4ZM1733.5 125C1741.5 112.733 1751.5 103.133 1763.5 96.2C1775.5 89 1788.83 85.4 1803.5 85.4V157.8H1784.7C1767.63 157.8 1754.83 161.533 1746.3 169C1737.76 176.2 1733.5 189 1733.5 207.4V311H1665.1V87.8H1733.5V125ZM1820.59 199C1820.59 176.067 1824.86 155.933 1833.39 138.6C1842.19 121.267 1854.06 107.933 1868.99 98.6C1883.92 89.2667 1900.59 84.6 1918.99 84.6C1933.66 84.6 1946.99 87.6666 1958.99 93.8C1971.26 99.9333 1980.86 108.2 1987.79 118.6V15H2056.19V311H1987.79V279C1981.39 289.667 1972.19 298.2 1960.19 304.6C1948.46 311 1934.72 314.2 1918.99 314.2C1900.59 314.2 1883.92 309.533 1868.99 300.2C1854.06 290.6 1842.19 277.133 1833.39 259.8C1824.86 242.2 1820.59 221.933 1820.59 199ZM1987.79 199.4C1987.79 182.333 1982.99 168.867 1973.39 159C1964.06 149.133 1952.59 144.2 1938.99 144.2C1925.39 144.2 1913.79 149.133 1904.19 159C1894.86 168.6 1890.19 181.933 1890.19 199C1890.19 216.067 1894.86 229.667 1904.19 239.8C1913.79 249.667 1925.39 254.6 1938.99 254.6C1952.59 254.6 1964.06 249.667 1973.39 239.8C1982.99 229.933 1987.79 216.467 1987.79 199.4Z" fill="white"/>
<path d="M1342.26 382.2V663H1273.86V547.4H1167.46V663H1099.06V382.2H1167.46V492.2H1273.86V382.2H1342.26ZM1614.04 439.8V663H1545.64V632.6C1538.7 642.467 1529.24 650.467 1517.24 656.6C1505.5 662.467 1492.44 665.4 1478.04 665.4C1460.97 665.4 1445.9 661.667 1432.84 654.2C1419.77 646.467 1409.64 635.4 1402.44 621C1395.24 606.6 1391.64 589.667 1391.64 570.2V439.8H1459.64V561C1459.64 575.933 1463.5 587.533 1471.24 595.8C1478.97 604.067 1489.37 608.2 1502.44 608.2C1515.77 608.2 1526.3 604.067 1534.04 595.8C1541.77 587.533 1545.64 575.933 1545.64 561V439.8H1614.04ZM1733.57 471.4C1739.97 461 1749.17 452.6 1761.17 446.2C1773.17 439.8 1786.9 436.6 1802.37 436.6C1820.77 436.6 1837.43 441.267 1852.37 450.6C1867.3 459.933 1879.03 473.267 1887.57 490.6C1896.37 507.933 1900.77 528.067 1900.77 551C1900.77 573.933 1896.37 594.2 1887.57 611.8C1879.03 629.133 1867.3 642.6 1852.37 652.2C1837.43 661.533 1820.77 666.2 1802.37 666.2C1786.63 666.2 1772.9 663.133 1761.17 657C1749.43 650.6 1740.23 642.2 1733.57 631.8V663H1665.17V367H1733.57V471.4ZM1831.17 551C1831.17 533.933 1826.37 520.6 1816.77 511C1807.43 501.133 1795.83 496.2 1781.97 496.2C1768.37 496.2 1756.77 501.133 1747.17 511C1737.83 520.867 1733.17 534.333 1733.17 551.4C1733.17 568.467 1737.83 581.933 1747.17 591.8C1756.77 601.667 1768.37 606.6 1781.97 606.6C1795.57 606.6 1807.17 601.667 1816.77 591.8C1826.37 581.667 1831.17 568.067 1831.17 551Z" fill="white"/>
<path d="M1964.65 666.2C1952.65 666.2 1942.78 662.733 1935.05 655.8C1927.58 648.6 1923.85 639.8 1923.85 629.4C1923.85 618.733 1927.58 609.8 1935.05 602.6C1942.78 595.4 1952.65 591.8 1964.65 591.8C1976.38 591.8 1985.98 595.4 1993.45 602.6C2001.18 609.8 2005.05 618.733 2005.05 629.4C2005.05 639.8 2001.18 648.6 1993.45 655.8C1985.98 662.733 1976.38 666.2 1964.65 666.2Z" fill="#D60E26"/>
</svg>
